<svg width="33" height="33" viewBox="0 0 33 33" fill="none" xmlns="http://www.w3.org/2000/svg">
<path d="M16.2734 17.8954C17.1019 17.8954 17.7734 17.2238 17.7734 16.3954C17.7734 15.5669 17.1019 14.8954 16.2734 14.8954C15.445 14.8954 14.7734 15.5669 14.7734 16.3954C14.7734 17.2238 15.445 17.8954 16.2734 17.8954Z" fill="black"/>
<path d="M16.2734 9.89537C17.1019 9.89537 17.7734 9.2238 17.7734 8.39537C17.7734 7.56694 17.1019 6.89537 16.2734 6.89537C15.445 6.89537 14.7734 7.56694 14.7734 8.39537C14.7734 9.2238 15.445 9.89537 16.2734 9.89537Z" fill="black"/>
<path d="M16.2734 25.8954C17.1019 25.8954 17.7734 25.2238 17.7734 24.3954C17.7734 23.5669 17.1019 22.8954 16.2734 22.8954C15.445 22.8954 14.7734 23.5669 14.7734 24.3954C14.7734 25.2238 15.445 25.8954 16.2734 25.8954Z" fill="black"/>
</svg>
