<svg width="26" height="33" viewBox="0 0 26 33" fill="none" xmlns="http://www.w3.org/2000/svg">
<path d="M8.27344 20.3954C10.4826 20.3954 12.2734 18.6045 12.2734 16.3954C12.2734 14.1862 10.4826 12.3954 8.27344 12.3954C6.0643 12.3954 4.27344 14.1862 4.27344 16.3954C4.27344 18.6045 6.0643 20.3954 8.27344 20.3954Z" stroke="black" stroke-width="2" stroke-linecap="round" stroke-linejoin="round"/>
<path d="M22.2734 29.3954C24.4826 29.3954 26.2734 27.6045 26.2734 25.3954C26.2734 23.1862 24.4826 21.3954 22.2734 21.3954C20.0643 21.3954 18.2734 23.1862 18.2734 25.3954C18.2734 27.6045 20.0643 29.3954 22.2734 29.3954Z" stroke="black" stroke-width="2" stroke-linecap="round" stroke-linejoin="round"/>
<path d="M22.2734 11.3954C24.4826 11.3954 26.2734 9.60451 26.2734 7.39537C26.2734 5.18623 24.4826 3.39537 22.2734 3.39537C20.0643 3.39537 18.2734 5.18623 18.2734 7.39537C18.2734 9.60451 20.0643 11.3954 22.2734 11.3954Z" stroke="black" stroke-width="2" stroke-linecap="round" stroke-linejoin="round"/>
<path d="M18.9107 9.55788L11.6357 14.2329" stroke="black" stroke-width="2" stroke-linecap="round" stroke-linejoin="round"/>
<path d="M11.6357 18.5579L18.9107 23.2329" stroke="black" stroke-width="2" stroke-linecap="round" stroke-linejoin="round"/>
</svg>
